<svg width="500" height="500" viewBox="0 0 500 500" fill="none" xmlns="http://www.w3.org/2000/svg">
<rect width="500" height="500" rx="50" fill="#293B52"/>
<path d="M380.75 40H118.25C111.288 40 104.611 42.7656 99.6884 47.6884C94.7656 52.6113 92 59.2881 92 66.25V433.75C92 440.712 94.7656 447.389 99.6884 452.312C104.611 457.234 111.288 460 118.25 460H328.25C349.136 460 369.166 451.703 383.935 436.935C398.703 422.166 407 402.136 407 381.25V66.25C407 59.2881 404.234 52.6113 399.312 47.6884C394.389 42.7656 387.712 40 380.75 40V40ZM223.25 322.188C223.25 323.928 222.559 325.597 221.328 326.828C220.097 328.059 218.428 328.75 216.688 328.75H197V348.438C197 350.178 196.309 351.847 195.078 353.078C193.847 354.309 192.178 355 190.438 355H177.312C175.572 355 173.903 354.309 172.672 353.078C171.441 351.847 170.75 350.178 170.75 348.438V328.75H151.062C149.322 328.75 147.653 328.059 146.422 326.828C145.191 325.597 144.5 323.928 144.5 322.188V309.062C144.5 307.322 145.191 305.653 146.422 304.422C147.653 303.191 149.322 302.5 151.062 302.5H170.75V282.812C170.75 281.072 171.441 279.403 172.672 278.172C173.903 276.941 175.572 276.25 177.312 276.25H190.438C192.178 276.25 193.847 276.941 195.078 278.172C196.309 279.403 197 281.072 197 282.812V302.5H216.688C218.428 302.5 220.097 303.191 221.328 304.422C222.559 305.653 223.25 307.322 223.25 309.062V322.188ZM282.312 355C278.419 355 274.612 353.845 271.375 351.682C268.137 349.519 265.614 346.444 264.124 342.847C262.634 339.249 262.244 335.291 263.003 331.472C263.763 327.653 265.638 324.145 268.391 321.391C271.145 318.638 274.653 316.763 278.472 316.003C282.291 315.244 286.249 315.634 289.847 317.124C293.444 318.614 296.519 321.137 298.682 324.375C300.845 327.612 302 331.419 302 335.312C302 340.534 299.926 345.542 296.234 349.234C292.542 352.926 287.534 355 282.312 355ZM183.875 223.75C180.394 223.75 177.056 222.367 174.594 219.906C172.133 217.444 170.75 214.106 170.75 210.625V105.625C170.75 102.144 172.133 98.8056 174.594 96.3442C177.056 93.8828 180.394 92.5 183.875 92.5H315.125C318.606 92.5 321.944 93.8828 324.406 96.3442C326.867 98.8056 328.25 102.144 328.25 105.625V197.5C328.25 204.462 325.484 211.139 320.562 216.062C315.639 220.984 308.962 223.75 302 223.75H183.875ZM334.812 315.625C330.919 315.625 327.112 314.47 323.875 312.307C320.637 310.144 318.114 307.069 316.624 303.472C315.134 299.874 314.744 295.916 315.503 292.097C316.263 288.278 318.138 284.77 320.891 282.016C323.645 279.263 327.153 277.388 330.972 276.628C334.791 275.869 338.749 276.259 342.347 277.749C345.944 279.239 349.019 281.762 351.182 285C353.345 288.237 354.5 292.044 354.5 295.938C354.5 301.159 352.426 306.167 348.734 309.859C345.042 313.551 340.034 315.625 334.812 315.625Z" fill="#F8D16C"/>
</svg>
